<?xml version="1.0" encoding="UTF-8" standalone="no"?>
<!-- Created with Inkscape (http://www.inkscape.org/) -->

<svg
   xmlns:dc="http://purl.org/dc/elements/1.1/"
   xmlns:cc="http://creativecommons.org/ns#"
   xmlns:rdf="http://www.w3.org/1999/02/22-rdf-syntax-ns#"
   xmlns:svg="http://www.w3.org/2000/svg"
   xmlns="http://www.w3.org/2000/svg"
   xmlns:sodipodi="http://sodipodi.sourceforge.net/DTD/sodipodi-0.dtd"
   xmlns:inkscape="http://www.inkscape.org/namespaces/inkscape"
   width="100"
   height="100"
   viewBox="0 0 26.458333 26.458334"
   version="1.1"
   id="svg8"
   inkscape:version="0.92.4 (5da689c313, 2019-01-14)"
   sodipodi:docname="figma.svg">
  <defs
     id="defs2" />
  <sodipodi:namedview
     id="base"
     pagecolor="#ffffff"
     bordercolor="#666666"
     borderopacity="1.0"
     inkscape:pageopacity="0.0"
     inkscape:pageshadow="2"
     inkscape:zoom="3.959798"
     inkscape:cx="14.76693"
     inkscape:cy="33.745053"
     inkscape:document-units="px"
     inkscape:current-layer="layer1"
     showgrid="false"
     units="px"
     inkscape:window-width="1366"
     inkscape:window-height="705"
     inkscape:window-x="-8"
     inkscape:window-y="-8"
     inkscape:window-maximized="1" />
  <metadata
     id="metadata5">
    <rdf:RDF>
      <cc:Work
         rdf:about="">
        <dc:format>image/svg+xml</dc:format>
        <dc:type
           rdf:resource="http://purl.org/dc/dcmitype/StillImage" />
        <dc:title></dc:title>
      </cc:Work>
    </rdf:RDF>
  </metadata>
  <g
     inkscape:label="Layer 1"
     inkscape:groupmode="layer"
     id="layer1"
     transform="translate(0,-270.54166)">
    <g
       style="display:inline"
       id="g1224"
       transform="matrix(1.1382117,0,0,1.1382117,-50.416052,-106.71071)">
      <path
         id="path2832"
         d="m 63.783485,343.06583 a 3.8742559,3.8742559 0 0 1 -3.874256,3.87425 3.8742559,3.8742559 0 0 1 -3.874256,-3.87425 3.8742559,3.8742559 0 0 1 3.874256,-3.87426 3.8742559,3.8742559 0 0 1 3.874256,3.87426 z"
         style="fill:#fafafc;fill-opacity:1;stroke:none;stroke-width:1.59528184;stroke-linecap:round;stroke-linejoin:round;stroke-miterlimit:4;stroke-dasharray:none;stroke-opacity:1"
         inkscape:connector-curvature="0" />
      <path
         sodipodi:nodetypes="sscccs"
         inkscape:connector-curvature="0"
         id="path2852-7"
         d="m 51.924481,346.94008 c -2.139694,0 -3.874258,-1.73457 -3.874256,-3.87426 3e-6,-2.13969 1.734566,-3.87425 3.874256,-3.87425 h 3.874255 v 7.74851 z"
         style="display:inline;fill:#fafafc;fill-opacity:1;stroke:none;stroke-width:1.59528184;stroke-linecap:round;stroke-linejoin:round;stroke-miterlimit:4;stroke-dasharray:none;stroke-opacity:1" />
      <path
         sodipodi:nodetypes="cssccc"
         inkscape:connector-curvature="0"
         id="path2832-8"
         d="m 55.798736,350.81433 c 2e-6,2.13969 -1.734562,3.87426 -3.874256,3.87426 -2.139694,0 -3.874257,-1.73457 -3.874255,-3.87426 3e-6,-2.13969 1.734565,-3.87425 3.874255,-3.87425 h 3.874256 z"
         style="display:inline;fill:#fafafc;fill-opacity:1;stroke:none;stroke-width:1.59528184;stroke-linecap:round;stroke-linejoin:round;stroke-miterlimit:4;stroke-dasharray:none;stroke-opacity:1" />
      <path
         sodipodi:nodetypes="sscccs"
         inkscape:connector-curvature="0"
         id="path2852-7-3"
         d="m 51.924481,339.19157 c -2.139694,0 -3.874258,-1.73457 -3.874256,-3.87426 3e-6,-2.13969 1.734566,-3.87425 3.874256,-3.87425 h 3.874255 v 7.74851 z"
         style="display:inline;fill:#fafafc;fill-opacity:1;stroke:none;stroke-width:1.59528184;stroke-linecap:round;stroke-linejoin:round;stroke-miterlimit:4;stroke-dasharray:none;stroke-opacity:1" />
      <path
         sodipodi:nodetypes="sscccs"
         inkscape:connector-curvature="0"
         id="path2852-7-3-3"
         d="m 59.672991,339.19157 c 2.139694,0 3.874258,-1.73457 3.874256,-3.87426 -3e-6,-2.13969 -1.734566,-3.87425 -3.874256,-3.87425 h -3.874255 v 7.74851 z"
         style="display:inline;fill:#fafafc;fill-opacity:0.78787884;stroke:none;stroke-width:1.59528184;stroke-linecap:round;stroke-linejoin:round;stroke-miterlimit:4;stroke-dasharray:none;stroke-opacity:1" />
    </g>
  </g>
</svg>
