<?xml version="1.0" encoding="UTF-8" standalone="no"?>
<!-- Created with Inkscape (http://www.inkscape.org/) -->

<svg
   xmlns:dc="http://purl.org/dc/elements/1.1/"
   xmlns:cc="http://creativecommons.org/ns#"
   xmlns:rdf="http://www.w3.org/1999/02/22-rdf-syntax-ns#"
   xmlns:svg="http://www.w3.org/2000/svg"
   xmlns="http://www.w3.org/2000/svg"
   xmlns:sodipodi="http://sodipodi.sourceforge.net/DTD/sodipodi-0.dtd"
   xmlns:inkscape="http://www.inkscape.org/namespaces/inkscape"
   width="100"
   height="100"
   viewBox="0 0 26.458333 26.458334"
   version="1.1"
   id="svg8"
   inkscape:version="0.92.4 (5da689c313, 2019-01-14)"
   sodipodi:docname="react.svg">
  <defs
     id="defs2" />
  <sodipodi:namedview
     id="base"
     pagecolor="#ffffff"
     bordercolor="#666666"
     borderopacity="1.0"
     inkscape:pageopacity="0.0"
     inkscape:pageshadow="2"
     inkscape:zoom="3.959798"
     inkscape:cx="14.76693"
     inkscape:cy="33.745053"
     inkscape:document-units="px"
     inkscape:current-layer="layer1"
     showgrid="false"
     units="px"
     inkscape:window-width="1366"
     inkscape:window-height="705"
     inkscape:window-x="-8"
     inkscape:window-y="-8"
     inkscape:window-maximized="1" />
  <metadata
     id="metadata5">
    <rdf:RDF>
      <cc:Work
         rdf:about="">
        <dc:format>image/svg+xml</dc:format>
        <dc:type
           rdf:resource="http://purl.org/dc/dcmitype/StillImage" />
        <dc:title></dc:title>
      </cc:Work>
    </rdf:RDF>
  </metadata>
  <g
     inkscape:label="Layer 1"
     inkscape:groupmode="layer"
     id="layer1"
     transform="translate(0,-270.54166)">
    <g
       id="g1063"
       transform="matrix(1.7756906,0,0,1.7756906,-83.852802,190.4074)"
       style="stroke-width:0.65432078;stroke-miterlimit:4;stroke-dasharray:none">
      <path
         style="color:#000000;font-style:normal;font-variant:normal;font-weight:normal;font-stretch:normal;font-size:medium;line-height:normal;font-family:sans-serif;font-variant-ligatures:normal;font-variant-position:normal;font-variant-caps:normal;font-variant-numeric:normal;font-variant-alternates:normal;font-feature-settings:normal;text-indent:0;text-align:start;text-decoration:none;text-decoration-line:none;text-decoration-style:solid;text-decoration-color:#000000;letter-spacing:normal;word-spacing:normal;text-transform:none;writing-mode:lr-tb;direction:ltr;text-orientation:mixed;dominant-baseline:auto;baseline-shift:baseline;text-anchor:start;white-space:normal;shape-padding:0;clip-rule:nonzero;display:inline;overflow:visible;visibility:visible;opacity:1;isolation:auto;mix-blend-mode:normal;color-interpolation:sRGB;color-interpolation-filters:linearRGB;solid-color:#000000;solid-opacity:1;vector-effect:none;fill:#fafafc;fill-opacity:1;fill-rule:nonzero;stroke:none;stroke-width:5;stroke-linecap:round;stroke-linejoin:miter;stroke-miterlimit:4;stroke-dasharray:none;stroke-dashoffset:0;stroke-opacity:1;color-rendering:auto;image-rendering:auto;shape-rendering:auto;text-rendering:auto;enable-background:accumulate"
         d="m 221.66992,110.52148 c -1.71867,-0.0727 -3.50989,0.20913 -5.29492,0.76758 -3.57008,1.11691 -7.26886,3.32171 -11.05664,6.35938 -1.3058,1.04721 -2.62103,2.20476 -3.93945,3.44922 -1.31948,-1.24654 -2.63596,-2.40269 -3.94336,-3.45118 -3.78778,-3.03767 -7.49048,-5.22489 -11.06055,-6.34179 -3.57007,-1.11689 -7.16058,-1.13428 -10.13672,0.58398 -2.97614,1.71828 -4.76816,4.84197 -5.58594,8.49219 -0.81777,3.65022 -0.77419,7.95084 -0.0371,12.75 0.25396,1.6541 0.59668,3.37148 1.01563,5.13476 -1.73757,0.51907 -3.3967,1.08005 -4.95703,1.6875 -4.5246,1.7615 -8.26919,3.87488 -11.02149,6.40821 -2.7523,2.53332 -4.5625,5.64743 -4.5625,9.08398 0,3.43656 1.8102,6.537 4.5625,9.07031 2.7523,2.53334 6.49689,4.64672 11.02149,6.40821 1.56157,0.60794 3.22184,1.16941 4.96094,1.68945 -0.41885,1.76508 -0.76343,3.48327 -1.01758,5.13867 -0.73648,4.79915 -0.79043,9.09197 0.0273,12.74219 0.81777,3.65022 2.6098,6.77586 5.58594,8.49414 2.97615,1.71829 6.57837,1.70676 10.14844,0.58984 3.57006,-1.11689 7.27276,-3.30413 11.06054,-6.34179 1.30607,-1.04742 2.62133,-2.2022 3.93946,-3.44727 1.31685,1.24369 2.63268,2.39889 3.9375,3.44532 3.78778,3.03767 7.48852,5.2249 11.05859,6.34179 3.57007,1.1169 7.18011,1.13823 10.15625,-0.58008 2.97615,-1.71827 4.74863,-4.84782 5.56641,-8.49804 0.81777,-3.65022 0.77614,-7.9489 0.0391,-12.74805 -0.25415,-1.6554 -0.59817,-3.37392 -1.01758,-5.13867 1.73707,-0.51959 3.39711,-1.0802 4.95703,-1.6875 4.5246,-1.76149 8.28286,-3.87488 11.03516,-6.40821 2.75229,-2.53331 4.56055,-5.63375 4.56055,-9.07031 0,-3.43655 -1.80826,-6.55066 -4.56055,-9.08398 -2.7523,-2.53333 -6.51056,-4.64671 -11.03516,-6.40821 -1.55813,-0.6066 -3.21627,-1.16709 -4.95117,-1.68554 0.41895,-1.76329 0.76167,-3.48066 1.01562,-5.13477 0.73658,-4.79915 0.78457,-9.10954 -0.0332,-12.75976 -0.81777,-3.65022 -2.60979,-6.77391 -5.58594,-8.49219 -1.48807,-0.85915 -3.13288,-1.2867 -4.85156,-1.35938 z m -0.26758,4.98243 c 1.0157,0.0386 1.87854,0.28951 2.61524,0.71484 1.47338,0.85066 2.59159,2.48548 3.21094,5.25 0.6192,2.76453 0.63057,6.53202 -0.041,10.90625 -0.22492,1.46499 -0.55228,3.01979 -0.92773,4.60938 -4.02727,-0.93015 -8.41575,-1.6171 -13.03907,-2.06446 -2.69872,-3.77962 -5.48789,-7.23556 -8.30664,-10.25781 1.18882,-1.12076 2.36868,-2.18368 3.52539,-3.11133 3.45241,-2.76871 6.72196,-4.64239 9.42578,-5.48828 1.35191,-0.42293 2.52142,-0.59715 3.53711,-0.55859 z m -40.05664,0.002 c 1.01284,-0.0369 2.17934,0.1376 3.53125,0.56055 2.70382,0.84589 5.9851,2.7137 9.4375,5.48242 1.15672,0.92764 2.33658,1.99057 3.52539,3.11133 -2.82222,3.02255 -5.6144,6.47892 -8.3164,10.25976 -4.62359,0.44759 -9.01172,1.13598 -13.03906,2.06641 -0.37601,-1.58926 -0.70477,-3.14243 -0.92969,-4.60742 -0.67159,-4.37423 -0.64858,-8.14954 -0.0293,-10.91407 0.61934,-2.76451 1.73755,-4.39738 3.21094,-5.24804 0.73669,-0.42533 1.59653,-0.67404 2.60937,-0.71094 z m 20.03321,12.72852 c 1.75694,1.89516 3.51487,3.97273 5.25586,6.21484 -1.72958,-0.0715 -3.48159,-0.11328 -5.25977,-0.11328 -1.77616,0 -3.52624,0.0419 -5.25391,0.11328 1.74147,-2.24257 3.50042,-4.31942 5.25782,-6.21484 z m -0.004,11.0996 c 3.11466,0 6.15211,0.12512 9.09375,0.35157 1.66739,2.43458 3.29526,5.00414 4.85352,7.70312 1.55837,2.69918 2.96935,5.3932 4.24414,8.05469 -1.27313,2.66034 -2.68291,5.35536 -4.24024,8.05273 -1.55659,2.6961 -3.18503,5.26166 -4.85156,7.69336 -2.94342,0.22674 -5.98292,0.35352 -9.09961,0.35352 -3.11533,0 -6.15463,-0.12697 -9.0957,-0.35352 -1.66604,-2.43291 -3.29452,-5.00038 -4.85157,-7.69726 -1.55643,-2.69582 -2.96472,-5.38861 -4.23828,-8.04688 1.27452,-2.66076 2.68425,-5.35625 4.24219,-8.05469 1.55902,-2.7003 3.18917,-5.27139 4.85742,-7.70703 2.93807,-0.22606 5.97403,-0.34961 9.08594,-0.34961 z m 15.54492,1.05274 c 2.81397,0.38644 5.49222,0.86962 8.01367,1.44336 -0.76209,2.47252 -1.68082,5.03726 -2.75195,7.66992 -0.80273,-1.53342 -1.64228,-3.07158 -2.53125,-4.61133 -0.88991,-1.54137 -1.80284,-3.03859 -2.73047,-4.50195 z m -31.09961,0.002 c -0.92667,1.46129 -1.83786,2.95682 -2.72656,4.4961 -0.88791,1.5379 -1.72776,3.07561 -2.5293,4.60742 -1.07083,-2.62843 -1.9895,-5.18947 -2.75195,-7.65821 2.51939,-0.57401 5.19595,-1.05854 8.00781,-1.44531 z m 43.98633,2.71875 c 1.56695,0.46947 3.08012,0.96167 4.46289,1.5 4.12398,1.60552 7.36866,3.51301 9.45313,5.43164 2.08447,1.91863 2.93946,3.70494 2.93945,5.40625 0,1.70132 -0.85498,3.47395 -2.93945,5.39258 -2.08447,1.91863 -5.32915,3.82612 -9.45313,5.43164 -1.38402,0.53882 -2.89827,1.03213 -4.4668,1.50195 -1.2079,-3.9534 -2.80806,-8.09773 -4.73242,-12.32617 1.92658,-4.23246 3.52752,-8.38094 4.73633,-12.33789 z m -56.85742,0.002 c 1.20771,3.95267 2.80657,8.09659 4.73047,12.32421 -1.92367,4.2308 -3.52175,8.37821 -4.72852,12.33399 -1.56511,-0.46919 -3.07718,-0.9601 -4.45898,-1.49805 -4.12398,-1.60552 -7.38038,-3.51301 -9.46485,-5.43164 -2.08447,-1.91863 -2.9414,-3.69126 -2.9414,-5.39258 -1e-5,-1.70131 0.85693,-3.48762 2.9414,-5.40625 2.08447,-1.91863 5.34087,-3.82612 9.46485,-5.43164 1.38122,-0.53773 2.89264,-1.02902 4.45703,-1.49804 z m 28.37305,2.43359 c -5.46351,0 -9.94141,4.47789 -9.94141,9.94141 0,5.4635 4.4779,9.9414 9.94141,9.9414 5.4635,0 9.95312,-4.47791 9.95312,-9.9414 1e-5,-5.46352 -4.48961,-9.94141 -9.95312,-9.94141 z m -20.75,15.83984 c 0.80213,1.53214 1.64107,3.06898 2.52929,4.60742 0.88872,1.5393 1.80023,3.03655 2.72656,4.49805 -2.81245,-0.38663 -5.4898,-0.87137 -8.00976,-1.44531 0.76298,-2.46978 1.68233,-5.03065 2.75391,-7.66016 z m 41.61132,0.004 c 1.07073,2.62803 1.99341,5.18783 2.75586,7.65625 -2.52028,0.57367 -5.19711,1.05878 -8.00976,1.44531 0.9258,-1.46073 1.83639,-2.9557 2.72461,-4.49414 0.88821,-1.53843 1.72717,-3.07529 2.52929,-4.60742 z m 4.08203,12.50586 c 0.37601,1.58926 0.70477,3.14242 0.92969,4.60742 0.67159,4.37422 0.64858,8.14955 0.0293,10.91406 -0.61934,2.76453 -1.72584,4.39349 -3.19922,5.24414 -1.47338,0.85067 -3.44852,1.00212 -6.15234,0.15625 -2.70382,-0.84588 -5.98509,-2.71371 -9.4375,-5.48242 -1.15543,-0.92661 -2.33402,-1.98812 -3.52149,-3.10742 2.81884,-3.02199 5.60778,-6.47837 8.30664,-10.25781 4.62559,-0.44964 9.01602,-1.14127 13.04492,-2.07422 z m -49.77734,0.002 c 4.02959,0.93289 8.42056,1.62283 13.04688,2.07227 2.69665,3.77605 5.48433,7.23012 8.30078,10.25 -1.18981,1.12094 -2.37215,2.18333 -3.5293,3.11132 -3.4524,2.76873 -6.72197,4.6424 -9.42578,5.48829 -2.70382,0.84586 -4.67897,0.6944 -6.15234,-0.15625 -1.47339,-0.85067 -2.5916,-2.48549 -3.21094,-5.25 -0.61921,-2.76453 -0.63058,-6.53202 0.041,-10.90625 0.22501,-1.46556 0.5535,-3.01946 0.92969,-4.60938 z m 19.63477,2.54492 c 1.72702,0.0717 3.47647,0.11328 5.25195,0.11328 1.77548,0 3.52493,-0.0416 5.25195,-0.11328 -1.74054,2.23849 -3.49761,4.31275 -5.2539,6.20508 -1.7547,-1.89274 -3.51119,-3.96626 -5.25,-6.20508 z"
         transform="matrix(0.14814082,0,0,0.14814082,24.840068,29.55239)"
         id="path1002"
         inkscape:connector-curvature="0" />
    </g>
  </g>
</svg>
