<?xml version="1.0" encoding="UTF-8" standalone="no"?>
<!-- Created with Inkscape (http://www.inkscape.org/) -->

<svg
   xmlns:dc="http://purl.org/dc/elements/1.1/"
   xmlns:cc="http://creativecommons.org/ns#"
   xmlns:rdf="http://www.w3.org/1999/02/22-rdf-syntax-ns#"
   xmlns:svg="http://www.w3.org/2000/svg"
   xmlns="http://www.w3.org/2000/svg"
   xmlns:sodipodi="http://sodipodi.sourceforge.net/DTD/sodipodi-0.dtd"
   xmlns:inkscape="http://www.inkscape.org/namespaces/inkscape"
   width="100"
   height="100"
   viewBox="0 0 26.458333 26.458334"
   version="1.1"
   id="svg8"
   inkscape:version="0.92.4 (5da689c313, 2019-01-14)"
   sodipodi:docname="gimp.svg">
  <defs
     id="defs2" />
  <sodipodi:namedview
     id="base"
     pagecolor="#ffffff"
     bordercolor="#666666"
     borderopacity="1.0"
     inkscape:pageopacity="0.0"
     inkscape:pageshadow="2"
     inkscape:zoom="3.959798"
     inkscape:cx="14.76693"
     inkscape:cy="33.745053"
     inkscape:document-units="px"
     inkscape:current-layer="layer1"
     showgrid="false"
     units="px"
     inkscape:window-width="1366"
     inkscape:window-height="705"
     inkscape:window-x="-8"
     inkscape:window-y="-8"
     inkscape:window-maximized="1" />
  <metadata
     id="metadata5">
    <rdf:RDF>
      <cc:Work
         rdf:about="">
        <dc:format>image/svg+xml</dc:format>
        <dc:type
           rdf:resource="http://purl.org/dc/dcmitype/StillImage" />
        <dc:title></dc:title>
      </cc:Work>
    </rdf:RDF>
  </metadata>
  <g
     inkscape:label="Layer 1"
     inkscape:groupmode="layer"
     id="layer1"
     transform="translate(0,-270.54166)">
    <g
       style="display:inline;fill:#fafafc;fill-opacity:1"
       transform="matrix(1.2228586,0,0,1.2228586,-174.85514,-135.25806)"
       id="g1172">
      <g
         style="fill:#fafafc;fill-opacity:1;stroke:#2c2c37;stroke-width:1.13331831;stroke-linecap:round;stroke-linejoin:round;stroke-miterlimit:7.27272749;stroke-dasharray:none;stroke-opacity:1"
         id="g1126"
         transform="matrix(-0.06597265,-0.22394354,0.22394354,-0.06597265,120.14033,345.81786)">
        <path
           style="fill:#fafafc;fill-opacity:1;stroke:none;stroke-width:0.14310305;stroke-linecap:round;stroke-linejoin:round;stroke-miterlimit:7.27272749;stroke-dasharray:none;stroke-opacity:1"
           d="m -59.651104,139.18794 c 3.623748,-9.85342 11.216594,-20.31774 20.052383,-27.63585 l 0.97589,-0.80825 0.200137,0.97131 c 0.355497,1.72531 1.743758,3.74558 3.451391,5.02264 2.034151,1.52123 5.999999,2.60553 8.959054,2.44945 0.3606,-0.019 0.672668,-0.003 0.693499,0.0349 0.02086,0.0383 -0.236613,0.29629 -0.57206,0.57351 -2.866105,2.36853 -4.314465,6.34303 -3.64732,10.00874 0.292734,1.60845 0.896193,3.07161 1.75939,4.26581 l 0.769289,1.06428 -0.787671,0.11693 c -2.244186,0.33316 -5.088656,1.73266 -6.707471,3.30016 -0.482267,0.46698 -1.24713,1.37773 -1.699688,2.02388 -1.067104,1.52362 -1.90989,3.88121 -2.078221,5.81362 -0.50876,5.84039 3.147732,11.22153 8.746553,12.87202 2.238031,0.65976 3.596516,0.74049 5.79137,0.34414 1.398324,-0.25251 2.147808,-0.50815 3.59743,-1.22712 l 1.074926,-0.53311 -0.07733,0.84029 c -0.581963,6.32353 -0.05288,12.76872 1.465644,17.85422 1.85197,6.20221 4.964343,10.97588 9.4801422,14.54039 2.1246047,1.67705 2.2224728,1.91148 0.755086,1.80872 -0.8420582,-0.059 -6.4229562,-1.17462 -9.6253712,-1.92415 -3.230989,-0.75622 -10.723106,-2.96523 -13.472976,-3.97262 -13.102654,-4.79906 -21.87166,-10.93663 -27.11744,-18.97997 l -0.335986,-0.51515 1.605268,-1.71967 c 0.882885,-0.94581 2.157574,-2.39183 2.832635,-3.21339 l 1.227384,-1.49374 1.202967,0.29271 c 2.460594,0.59882 4.51107,-0.28187 7.070823,-3.03691 0.926608,-0.9973 2.487633,-2.98407 2.913201,-3.70773 0.210473,-0.35791 0.04098,-0.86718 -0.324466,-0.97484 -0.11055,-0.0326 -1.097787,0.45025 -2.193828,1.07292 l -1.992818,1.13214 -0.267968,-0.77837 c -0.395053,-1.14751 -0.829841,-3.61523 -0.911,-5.17053 -0.31539,-6.04416 1.435173,-12.71558 5.517184,-21.02609 0.487127,-0.99173 0.877751,-1.90229 0.868044,-2.02347 -0.0097,-0.12115 -0.110761,-0.31202 -0.224558,-0.42413 -0.411171,-0.40503 -0.842702,0.0187 -2.499116,2.45429 -5.894598,8.66718 -8.865359,15.99109 -8.707657,21.46723 0.02153,0.74756 0.0793,1.53526 0.128387,1.75048 0.08387,0.36775 0.0091,0.45789 -1.243016,1.4986 -1.840258,1.52955 -4.742806,4.22103 -6.385901,5.92155 -0.756,0.78241 -1.417022,1.41005 -1.468943,1.39475 -0.354044,-0.1043 -1.154721,-4.8159 -1.243698,-7.31849 -0.161896,-4.55405 0.708839,-9.68144 2.446492,-14.40633 z"
           id="path1081"
           inkscape:connector-curvature="0" />
        <path
           style="fill:#fafafc;fill-opacity:1;stroke:none;stroke-width:0.14310305;stroke-linecap:round;stroke-linejoin:round;stroke-miterlimit:7.27272749;stroke-dasharray:none;stroke-opacity:1"
           d="m -28.004368,146.40519 c 0.501939,-0.68885 1.119985,-1.10608 1.943312,-1.31188 1.48407,-0.37096 3.153115,0.46992 3.760239,1.89445 1.094129,2.56719 -1.327118,5.20532 -4.037703,4.39937 -1.995917,-0.59389 -2.898016,-3.29096 -1.665848,-4.98194 z"
           id="path1083"
           inkscape:connector-curvature="0" />
        <path
           style="fill:#fafafc;fill-opacity:1;stroke:none;stroke-width:0.14310305;stroke-linecap:round;stroke-linejoin:round;stroke-miterlimit:7.27272749;stroke-dasharray:none;stroke-opacity:1"
           d="m -32.401669,146.6027 c 1.014356,-1.23929 2.095311,-1.8375 3.517678,-1.94672 0.825003,-0.0633 0.860504,-0.0354 0.425219,0.33442 -0.159809,0.13576 -0.508163,0.61212 -0.774135,1.05856 -0.825329,1.38538 -0.827654,2.98673 -0.0064,4.44066 0.787264,1.39372 2.345331,2.3317 3.83756,2.31027 0.408153,-0.006 0.758167,0.0188 0.777806,0.0549 0.08165,0.14985 -1.020449,0.97026 -1.774426,1.32088 -2.25058,1.04663 -4.95292,0.19068 -6.268846,-1.98561 -0.765632,-1.26623 -0.925768,-2.33732 -0.566048,-3.78614 0.234392,-0.94403 0.369082,-1.23681 0.831557,-1.8012 z"
           id="path1085"
           inkscape:connector-curvature="0" />
        <path
           style="fill:#fafafc;fill-opacity:1;stroke:none;stroke-width:0.14310305;stroke-linecap:round;stroke-linejoin:round;stroke-miterlimit:7.27272749;stroke-dasharray:none;stroke-opacity:1"
           d="m -36.198053,143.16062 c 1.441393,-3.52257 4.795557,-6.0892 8.688346,-6.64838 1.709544,-0.24556 2.961217,-0.1446 4.711365,0.37998 2.914931,0.87373 5.009683,2.56067 6.4639,5.20547 1.311781,2.38576 1.709816,4.657 1.284096,7.32707 -0.34705,2.17663 -1.661209,4.60288 -3.353227,6.19091 -0.908651,0.8528 -3.634761,2.33821 -4.843976,2.6394 -2.25171,0.56087 -5.002915,0.34976 -7.020064,-0.53865 -2.474891,-1.09002 -4.164565,-2.65347 -5.467214,-5.0588 -0.691859,-1.2775 -0.877938,-1.79884 -1.116691,-3.12863 -0.406269,-2.26282 -0.198698,-4.28579 0.653465,-6.36837 z m 1.505926,6.96051 c 0.130194,1.66991 1.092265,3.43795 2.43042,4.46646 0.946736,0.72768 2.51955,1.27735 3.731701,1.3042 2.281689,0.0505 4.316959,-1.11467 5.545645,-3.17487 0.240595,-0.40341 0.708098,-1.02297 1.038918,-1.3768 0.519608,-0.55577 0.647353,-0.80238 0.938617,-1.81205 0.286304,-0.99191 0.313064,-1.2929 0.178059,-1.98949 -0.422178,-2.17794 -2.167937,-3.71126 -4.292341,-3.77003 -0.488318,-0.0135 -1.310045,-0.11918 -1.826044,-0.23483 -1.701803,-0.38145 -3.13102,-0.1652 -4.615862,0.69838 -1.594607,0.92742 -2.488774,2.1303 -2.925191,3.93512 -0.162663,0.67247 -0.243445,1.447 -0.203922,1.95391 z"
           id="path1087"
           inkscape:connector-curvature="0" />
        <path
           style="fill:#fafafc;fill-opacity:1;stroke:none;stroke-width:0.14310305;stroke-linecap:round;stroke-linejoin:round;stroke-miterlimit:7.27272749;stroke-dasharray:none;stroke-opacity:1"
           d="m -73.459813,175.54871 c 0.428221,-0.65334 1.493843,-2.37767 2.368047,-3.83186 1.681089,-2.79638 2.007327,-3.18748 3.095255,-3.71062 1.162506,-0.55901 1.601481,-0.58949 2.923838,-0.20301 1.099682,0.3216 1.225356,0.39194 1.663944,0.93495 0.720874,0.89243 0.896358,2.12951 0.494103,3.48317 -0.253807,0.85353 -0.413534,1.15348 -0.867802,1.62817 -0.962737,1.00597 -2.614271,1.70977 -5.075147,2.16278 -1.286998,0.23692 -5.35759,0.81529 -5.370909,0.76312 -0.0055,-0.0214 0.340453,-0.57338 0.768671,-1.2267 z"
           id="path1089"
           inkscape:connector-curvature="0" />
        <path
           style="fill:#fafafc;fill-opacity:1;stroke:none;stroke-width:0.14310305;stroke-linecap:round;stroke-linejoin:round;stroke-miterlimit:7.27272749;stroke-dasharray:none;stroke-opacity:1"
           d="m -62.543319,165.03976 c 1.565831,-1.9828 4.226522,-4.88664 6.242957,-6.8135 1.660112,-1.58635 5.05465,-4.51077 5.65777,-4.8742 0.55579,-0.33492 1.246953,-0.44004 1.584747,-0.24104 0.543046,0.31994 0.354193,0.77483 -1.310701,3.15722 -3.266174,4.67373 -6.488426,8.43897 -10.044624,11.73724 l -1.241898,1.15183 -0.342411,-0.60712 c -0.358362,-0.63539 -1.171073,-1.45687 -1.552502,-1.56923 -0.122704,-0.0362 -0.236722,-0.12007 -0.253357,-0.18653 -0.01669,-0.0665 0.550368,-0.85604 1.260019,-1.75467 z"
           id="path1091"
           inkscape:connector-curvature="0" />
        <path
           style="fill:#fafafc;fill-opacity:1;stroke:none;stroke-width:0.05059457;stroke-linecap:round;stroke-linejoin:round;stroke-miterlimit:7.27272749;stroke-dasharray:none;stroke-opacity:1"
           d="m -51.06441,159.35047 c 0.250047,-0.33247 0.709408,-0.96157 1.020818,-1.39798 l 0.566193,-0.79351 0.228926,-0.0181 c 0.306175,-0.0242 0.481368,-0.15496 0.558519,-0.41685 0.04544,-0.15425 0.03969,-0.25744 -0.02213,-0.39853 l -0.08344,-0.1904 0.48182,-0.68525 c 0.445804,-0.63401 0.49256,-0.7205 0.625426,-1.15699 0.07882,-0.25952 0.146982,-0.47086 0.151577,-0.46961 0.0044,0.001 0.04521,0.16577 0.09061,0.36573 0.106507,0.46876 0.468359,1.65518 0.694525,2.2771 0.19525,0.53692 0.354668,0.72962 0.62643,0.75718 0.180886,0.0183 0.673242,-0.17519 1.600655,-0.62915 0.330504,-0.16178 0.594079,-0.27095 0.58573,-0.24261 -0.02569,0.0872 -0.92058,1.10557 -1.385165,1.57631 -0.54955,0.55681 -1.404908,1.27094 -1.902659,1.58852 -0.902825,0.576 -2.002895,0.90562 -2.864204,0.85823 -0.338269,-0.0186 -1.316119,-0.27855 -1.38805,-0.36898 -0.0262,-0.033 0.118435,-0.26166 0.414373,-0.6551 z"
           id="path1093"
           inkscape:connector-curvature="0" />
        <path
           style="fill:#fafafc;fill-opacity:1;stroke:none;stroke-width:0.05059457;stroke-linecap:round;stroke-linejoin:round;stroke-miterlimit:7.27272749;stroke-dasharray:none;stroke-opacity:1"
           d="m -49.194521,142.52207 c 0.743328,-2.02191 1.827946,-4.34857 3.069884,-6.58533 0.615327,-1.10824 1.22167,-2.13985 1.202346,-2.04567 -0.0057,0.0274 -0.157828,0.43348 -0.338293,0.90249 -1.337592,3.47638 -2.255296,7.02754 -2.634556,10.1947 -0.300641,2.51066 -0.294469,4.72304 0.01952,6.99463 0.0467,0.33792 0.08275,0.62178 0.0801,0.63078 -0.0026,0.009 -0.104168,-0.0919 -0.225569,-0.22426 -0.496257,-0.541 -1.257637,-0.72608 -2.182412,-0.53057 -0.197056,0.0417 -0.361323,0.0678 -0.365029,0.0581 -0.0043,-0.01 -0.03367,-0.25105 -0.06649,-0.53631 -0.17567,-1.5248 -0.04583,-3.30747 0.385511,-5.29272 0.173209,-0.79731 0.734128,-2.69292 1.055207,-3.56585 z"
           id="path1095"
           inkscape:connector-curvature="0" />
        <path
           style="fill:#fafafc;fill-opacity:1;stroke:none;stroke-width:0.07155153;stroke-linecap:round;stroke-linejoin:round;stroke-miterlimit:7.27272749;stroke-dasharray:none;stroke-opacity:1"
           d="m -36.778966,106.45293 c 0.918608,-2.26626 2.813362,-4.4898 5.309391,-6.23073 0.886619,-0.618397 2.606513,-1.545502 3.667925,-1.977191 6.370921,-2.591113 13.159545,-1.811657 16.528058,1.897721 0.630226,0.69401 1.3783845,2.07678 1.6032499,2.96315 0.2094376,0.82557 0.2730466,1.93488 0.1620736,2.82633 -0.1059397,0.85094 -0.5996595,2.39407 -1.0289565,3.21646 -1.39467,2.67115 -4.204427,5.23587 -7.41168,6.76532 -3.569166,1.70203 -7.421619,2.36601 -10.951995,1.88757 -1.048826,-0.14215 -2.908221,-0.68443 -3.744313,-1.09243 -3.174318,-1.54739 -4.90125,-4.15647 -4.796006,-7.24592 0.03506,-1.02947 0.243688,-1.97768 0.662398,-3.01065 z m 14.2049,-2.71338 c 0.08992,1.68269 0.942457,3.13534 2.435962,4.15063 1.523077,1.03538 3.181529,1.39558 4.986068,1.08291 0.711929,-0.12335 0.929941,-0.20134 1.631018,-0.58343 1.272533,-0.69355 1.908979,-1.449 2.271066,-2.69571 0.159754,-0.5503 0.196131,-0.80813 0.18252,-1.29473 -0.04534,-1.6156 -0.947159,-3.13883 -2.472951,-4.17694 -1.1775,-0.801152 -2.722902,-1.224544 -4.208148,-1.152863 -1.758119,0.0848 -3.432457,1.043753 -4.269585,2.445363 -0.289182,0.48416 -0.585642,1.67032 -0.555944,2.22483 z"
           id="path1097"
           inkscape:connector-curvature="0" />
        <path
           style="fill:#fafafc;fill-opacity:1;stroke:none;stroke-width:0.07155153;stroke-linecap:round;stroke-linejoin:round;stroke-miterlimit:7.27272749;stroke-dasharray:none;stroke-opacity:1"
           d="m -20.885117,101.96038 c 0.741201,-1.10033 2.162969,-1.74845 3.744426,-1.70689 0.873799,0.023 2.03839,0.38547 2.777022,0.86441 1.468273,0.95207 2.236616,2.3718 2.066759,3.81893 -0.180383,1.53677 -1.716496,2.81054 -3.551985,2.94537 -2.805449,0.20608 -5.480089,-1.81487 -5.515956,-4.16784 -0.0081,-0.52828 0.222912,-1.37272 0.479734,-1.75398 z"
           id="path1099"
           inkscape:connector-curvature="0" />
        <path
           style="fill:#fafafc;fill-opacity:1;stroke:none;stroke-width:0.07155153;stroke-linecap:round;stroke-linejoin:round;stroke-miterlimit:7.27272749;stroke-dasharray:none;stroke-opacity:1"
           d="m -20.852726,127.2217 c 0.411056,-0.67191 1.151937,-1.15426 1.963922,-1.27861 0.382793,-0.0586 0.527095,-0.0413 1.126808,0.13539 0.638589,0.18813 0.715775,0.22835 1.078835,0.56253 0.842838,0.77571 1.121453,1.99803 0.692637,3.0386 -0.357884,0.86833 -1.211571,1.52858 -2.172771,1.68034 -0.374843,0.0592 -0.518848,0.0419 -1.118061,-0.13468 -0.638589,-0.18813 -0.715775,-0.22835 -1.078835,-0.56253 -0.972504,-0.89507 -1.176821,-2.32251 -0.492535,-3.44104 z"
           id="path1101"
           inkscape:connector-curvature="0" />
        <path
           style="fill:#fafafc;fill-opacity:1;stroke:none;stroke-width:0.07155153;stroke-linecap:round;stroke-linejoin:round;stroke-miterlimit:7.27272749;stroke-dasharray:none;stroke-opacity:1"
           d="m -25.016595,128.03656 c 0.450598,-0.97714 1.312531,-1.78434 2.306099,-2.15967 0.495607,-0.18722 1.126167,-0.31077 1.507159,-0.29529 l 0.183568,0.007 -0.305405,0.3089 c -0.670919,0.67861 -1.126106,1.75816 -1.131136,2.68269 -0.01217,2.23927 1.857989,4.08107 4.056607,3.99508 0.477322,-0.0187 0.475392,-0.005 -0.062,0.44467 -1.012184,0.84671 -2.315613,1.16315 -3.643122,0.88448 -2.026602,-0.42544 -3.493478,-2.47062 -3.263444,-4.55003 0.06943,-0.62792 0.11906,-0.81386 0.351731,-1.31827 z"
           id="path1103"
           inkscape:connector-curvature="0" />
        <path
           style="fill:#fafafc;fill-opacity:1;stroke:none;stroke-width:0.07155153;stroke-linecap:round;stroke-linejoin:round;stroke-miterlimit:7.27272749;stroke-dasharray:none;stroke-opacity:1"
           d="m -27.38909,123.54076 c 0.635453,-1.18293 1.542958,-2.2505 2.611499,-3.07215 0.569604,-0.43799 1.998275,-1.18442 2.705487,-1.41352 1.227742,-0.39773 2.505294,-0.55069 3.788628,-0.45362 0.759479,0.0575 2.865393,0.65515 3.476225,0.98662 1.793319,0.97317 3.110691,2.29228 4.021734,4.02703 1.5226638,2.89934 1.4643193,6.21287 -0.159435,9.05489 -1.361083,2.38229 -3.741175,4.04886 -6.486151,4.54167 -1.288165,0.23126 -1.323483,0.22755 -2.066417,-0.2173 -0.924947,-0.55383 -1.2512,-0.71356 -2.158405,-1.05683 -0.888193,-0.33609 -2.231624,-0.65624 -3.022141,-0.71991 l -0.466066,-0.0376 -0.410182,-0.38004 c -1.771947,-1.64175 -2.845095,-4.01796 -2.934738,-6.49824 -0.03961,-1.09607 0.06758,-1.87595 0.419325,-3.05053 0.230061,-0.76891 0.38866,-1.16691 0.680627,-1.71046 z m 0.80514,5.87357 c -0.16063,2.06596 0.922737,4.06181 2.773404,5.10937 0.608643,0.34452 1.728795,0.65771 2.436111,0.68116 2.113374,0.07 3.998672,-1.03282 5.010837,-2.93106 0.141199,-0.26473 0.413874,-0.63756 0.606018,-0.82846 0.949023,-0.94297 1.374717,-2.43711 1.059368,-3.71834 -0.426337,-1.73213 -1.974117,-2.97637 -3.715397,-2.98676 -0.286666,-0.002 -0.873657,-0.0787 -1.3044,-0.17111 -1.485401,-0.31861 -2.675212,-0.19951 -3.839782,0.38435 -1.03075,0.51678 -1.711919,1.14086 -2.291245,2.09926 -0.328405,0.54327 -0.681849,1.67907 -0.734946,2.36162 z"
           id="path1105"
           inkscape:connector-curvature="0" />
        <path
           style="fill:#fafafc;fill-opacity:1;stroke:none;stroke-width:0.07155153;stroke-linecap:round;stroke-linejoin:round;stroke-miterlimit:7.27272749;stroke-dasharray:none;stroke-opacity:1"
           d="m -17.121779,138.39569 c 1.29806,-0.21512 2.962285,-0.93324 4.324869,-1.86621 0.146655,-0.10038 0.233789,-0.13487 0.193696,-0.0766 -0.94877,1.37853 -1.717983,2.67942 -2.245971,3.79835 -0.522751,1.10785 -0.424535,1.06048 -0.853042,0.41114 -0.407084,-0.61683 -0.958549,-1.30383 -1.472347,-1.83422 -0.180896,-0.18673 -0.326828,-0.34652 -0.324298,-0.35511 0.0026,-0.009 0.172232,-0.0434 0.377093,-0.0773 z"
           id="path1107"
           inkscape:connector-curvature="0" />
        <path
           style="fill:#fafafc;fill-opacity:1;stroke:none;stroke-width:0.07155153;stroke-linecap:round;stroke-linejoin:round;stroke-miterlimit:7.27272749;stroke-dasharray:none;stroke-opacity:1"
           d="m -9.2191227,122.77433 c 0.4279089,0.14898 3.0188016,0.98219 5.7575353,1.8516 2.73872712,0.86944 5.0986971,1.62305 5.2443892,1.67469 l 0.2648809,0.0939 -0.608693,0.18696 c -2.60651,0.80062 -5.5546382,2.26196 -7.9940884,3.96254 -0.7658653,0.53392 -2.4458272,1.90419 -2.9325459,2.39198 -0.1662811,0.1666 -0.310233,0.28832 -0.3199569,0.27048 -0.00974,-0.0179 0.1147783,-0.3086 0.2767086,-0.64612 0.3431179,-0.71529 0.8119599,-2.2495 0.9309961,-3.04676 0.325335,-2.1778 -0.071997,-4.50191 -1.1033468,-6.4538 l -0.2939303,-0.55629 z"
           id="path1109"
           inkscape:connector-curvature="0" />
      </g>
    </g>
  </g>
</svg>
