<?xml version="1.0" encoding="UTF-8" standalone="no"?>
<!-- Created with Inkscape (http://www.inkscape.org/) -->

<svg
   xmlns:dc="http://purl.org/dc/elements/1.1/"
   xmlns:cc="http://creativecommons.org/ns#"
   xmlns:rdf="http://www.w3.org/1999/02/22-rdf-syntax-ns#"
   xmlns:svg="http://www.w3.org/2000/svg"
   xmlns="http://www.w3.org/2000/svg"
   xmlns:sodipodi="http://sodipodi.sourceforge.net/DTD/sodipodi-0.dtd"
   xmlns:inkscape="http://www.inkscape.org/namespaces/inkscape"
   width="100"
   height="100"
   viewBox="0 0 26.458334 26.458334"
   version="1.1"
   id="svg8"
   inkscape:version="0.92.4 (5da689c313, 2019-01-14)"
   sodipodi:docname="icon-2.svg">
  <defs
     id="defs2" />
  <sodipodi:namedview
     id="base"
     pagecolor="#ffffff"
     bordercolor="#666666"
     borderopacity="1.0"
     inkscape:pageopacity="0.0"
     inkscape:pageshadow="2"
     inkscape:zoom="3.959798"
     inkscape:cx="12.443824"
     inkscape:cy="38.388958"
     inkscape:document-units="px"
     inkscape:current-layer="layer1"
     showgrid="false"
     units="px"
     inkscape:window-width="1366"
     inkscape:window-height="705"
     inkscape:window-x="-8"
     inkscape:window-y="-8"
     inkscape:window-maximized="1" />
  <metadata
     id="metadata5">
    <rdf:RDF>
      <cc:Work
         rdf:about="">
        <dc:format>image/svg+xml</dc:format>
        <dc:type
           rdf:resource="http://purl.org/dc/dcmitype/StillImage" />
        <dc:title />
      </cc:Work>
    </rdf:RDF>
  </metadata>
  <g
     inkscape:label="Layer 1"
     inkscape:groupmode="layer"
     id="layer1"
     transform="translate(0,-270.54166)">
    <g
       aria-label="L"
       style="font-style:normal;font-weight:normal;font-size:10.58333302px;line-height:1.25;font-family:sans-serif;letter-spacing:0px;word-spacing:0px;fill:#000000;fill-opacity:1;stroke:none;stroke-width:0.26458332"
       id="text12" />
    <circle
       id="path9"
       cx="13.229167"
       cy="283.77081"
       r="13.176356"
       style="fill:#ffffff;fill-opacity:0;stroke:#dedede;stroke-width:0.1056221;stroke-miterlimit:4;stroke-dasharray:none;stroke-opacity:1" />
    <path
       id="path1128"
       style="fill:none;stroke:#00c2ff;stroke-width:0.5291667;stroke-linecap:round;stroke-linejoin:round;stroke-miterlimit:4;stroke-dasharray:none;stroke-opacity:1"
       d="m 8.9565176,282.23353 -2.318489,-1.75543 m 2.3516074,4.90194 -2.2522424,1.82167 m 9.0012884,0.3819 2.259938,1.70474 m -0.482288,-4.14081 c -0.581665,1.81278 -2.28119,3.12487 -4.287167,3.12487 -2.486149,0 -4.5015765,-2.01543 -4.5015765,-4.50158 0,-2.48615 2.0154215,-4.50158 4.5015765,-4.50158 1.156637,0 2.211392,0.43623 3.008716,1.15312 m 4.240104,1.98134 c 0.08304,0.44302 0.126465,0.9 0.126465,1.36712 0,4.07326 -3.30203,7.37528 -7.375285,7.37528 -4.0732563,0 -7.3752809,-3.30202 -7.3752809,-7.37528 0,-4.07325 3.3020246,-7.37528 7.3752809,-7.37528 1.945043,0 3.714231,0.75293 5.031999,1.98323 m -4.97003,6.77457 v -2.71675 m 4.225198,2.71094 -4.225198,0.006 m 7.186851,-2.74964 h -7.186851 m 4.97003,-4.02493 -2.023283,2.04359"
       inkscape:connector-curvature="0" />
  </g>
</svg>
