<?xml version="1.0" encoding="UTF-8" standalone="no"?>
<!-- Created with Inkscape (http://www.inkscape.org/) -->

<svg
   xmlns:dc="http://purl.org/dc/elements/1.1/"
   xmlns:cc="http://creativecommons.org/ns#"
   xmlns:rdf="http://www.w3.org/1999/02/22-rdf-syntax-ns#"
   xmlns:svg="http://www.w3.org/2000/svg"
   xmlns="http://www.w3.org/2000/svg"
   xmlns:sodipodi="http://sodipodi.sourceforge.net/DTD/sodipodi-0.dtd"
   xmlns:inkscape="http://www.inkscape.org/namespaces/inkscape"
   width="100"
   height="100"
   viewBox="0 0 26.458334 26.458334"
   version="1.1"
   id="svg8"
   inkscape:version="0.92.4 (5da689c313, 2019-01-14)"
   sodipodi:docname="icon-6.svg">
  <defs
     id="defs2" />
  <sodipodi:namedview
     id="base"
     pagecolor="#ffffff"
     bordercolor="#666666"
     borderopacity="1.0"
     inkscape:pageopacity="0.0"
     inkscape:pageshadow="2"
     inkscape:zoom="3.959798"
     inkscape:cx="32.899413"
     inkscape:cy="35.3585"
     inkscape:document-units="px"
     inkscape:current-layer="layer1"
     showgrid="false"
     units="px"
     inkscape:window-width="1366"
     inkscape:window-height="705"
     inkscape:window-x="-8"
     inkscape:window-y="-8"
     inkscape:window-maximized="1" />
  <metadata
     id="metadata5">
    <rdf:RDF>
      <cc:Work
         rdf:about="">
        <dc:format>image/svg+xml</dc:format>
        <dc:type
           rdf:resource="http://purl.org/dc/dcmitype/StillImage" />
        <dc:title />
      </cc:Work>
    </rdf:RDF>
  </metadata>
  <g
     inkscape:label="Layer 1"
     inkscape:groupmode="layer"
     id="layer1"
     transform="translate(0,-270.54166)">
    <g
       aria-label="L"
       style="font-style:normal;font-weight:normal;font-size:10.58333302px;line-height:1.25;font-family:sans-serif;letter-spacing:0px;word-spacing:0px;fill:#000000;fill-opacity:1;stroke:none;stroke-width:0.26458332"
       id="text12" />
    <circle
       id="path9"
       cx="13.229167"
       cy="283.77081"
       r="13.176356"
       style="fill:#ffffff;fill-opacity:0;stroke:#dedede;stroke-width:0.1056221;stroke-miterlimit:4;stroke-dasharray:none;stroke-opacity:1" />
    <g
       id="g1069"
       style="stroke:#00c2ff;stroke-width:1.13006723;stroke-miterlimit:4;stroke-dasharray:none;stroke-opacity:1"
       transform="matrix(0.46826124,0,0,0.46826124,-199.97169,162.88928)">
      <path
         style="color:#000000;font-style:normal;font-variant:normal;font-weight:normal;font-stretch:normal;font-size:medium;line-height:normal;font-family:sans-serif;font-variant-ligatures:normal;font-variant-position:normal;font-variant-caps:normal;font-variant-numeric:normal;font-variant-alternates:normal;font-feature-settings:normal;text-indent:0;text-align:start;text-decoration:none;text-decoration-line:none;text-decoration-style:solid;text-decoration-color:#000000;letter-spacing:normal;word-spacing:normal;text-transform:none;writing-mode:lr-tb;direction:ltr;text-orientation:mixed;dominant-baseline:auto;baseline-shift:baseline;text-anchor:start;white-space:normal;shape-padding:0;clip-rule:nonzero;display:inline;overflow:visible;visibility:visible;opacity:1;isolation:auto;mix-blend-mode:normal;color-interpolation:sRGB;color-interpolation-filters:linearRGB;solid-color:#000000;solid-opacity:1;vector-effect:none;fill:none;fill-opacity:1;fill-rule:nonzero;stroke:#00c2ff;stroke-width:1.13006723;stroke-linecap:round;stroke-linejoin:round;stroke-miterlimit:4;stroke-dasharray:none;stroke-dashoffset:0;stroke-opacity:1;color-rendering:auto;image-rendering:auto;shape-rendering:auto;text-rendering:auto;enable-background:accumulate"
         d="m 467.41406,249.23047 c -0.12049,0.003 -0.24061,0.0146 -0.35937,0.0352 h -8.13775 c -3.30698,-0.0509 -3.30698,4.93563 0,4.88477 h 2.4522 l -4.09961,3.92578 -2.8418,-2.96094 c -0.88219,-0.91898 -2.32251,-1.0057 -3.30859,-0.19921 l -9.49609,7.77343 c -2.5312,2.06263 0.57501,5.85477 3.0957,3.7793 l 7.74805,-6.34375 2.96679,3.09375 c 0.93348,0.97201 2.47781,1.00436 3.45118,0.0723 l 6.12304,-5.86329 v 1.67918 c -0.0509,3.30697 4.93563,3.30697 4.88477,0 v -7.0073 c 0.0577,-0.35651 0.0357,-0.72139 -0.0645,-1.06836 -10e-4,-0.007 -0.003,-0.013 -0.004,-0.0195 -10e-4,-0.005 -0.003,-0.009 -0.004,-0.0137 -0.0159,-0.0507 -0.0335,-0.10085 -0.0527,-0.15039 -0.0111,-0.0315 -0.0228,-0.0628 -0.0352,-0.0938 -0.0143,-0.0329 -0.0292,-0.0655 -0.0449,-0.0977 -0.0225,-0.049 -0.0466,-0.0972 -0.0723,-0.14453 -10e-4,-0.003 -0.003,-0.005 -0.004,-0.008 -0.003,-0.004 -0.005,-0.008 -0.008,-0.0117 -0.23467,-0.41966 -0.58797,-0.76073 -1.01563,-0.98047 -0.0637,-0.0335 -0.12889,-0.0641 -0.19531,-0.0918 -0.30969,-0.12973 -0.64279,-0.19422 -0.97852,-0.18945 z"
         id="path1049-5"
         inkscape:connector-curvature="0"
         sodipodi:nodetypes="cccccccccccccccccccccccccccccc" />
    </g>
  </g>
</svg>
