<?xml version="1.0" encoding="UTF-8" standalone="no"?>
<!-- Created with Inkscape (http://www.inkscape.org/) -->

<svg
   xmlns:dc="http://purl.org/dc/elements/1.1/"
   xmlns:cc="http://creativecommons.org/ns#"
   xmlns:rdf="http://www.w3.org/1999/02/22-rdf-syntax-ns#"
   xmlns:svg="http://www.w3.org/2000/svg"
   xmlns="http://www.w3.org/2000/svg"
   xmlns:sodipodi="http://sodipodi.sourceforge.net/DTD/sodipodi-0.dtd"
   xmlns:inkscape="http://www.inkscape.org/namespaces/inkscape"
   width="100"
   height="100"
   viewBox="0 0 26.458333 26.458334"
   version="1.1"
   id="svg8"
   inkscape:version="0.92.4 (5da689c313, 2019-01-14)"
   sodipodi:docname="node.svg">
  <defs
     id="defs2" />
  <sodipodi:namedview
     id="base"
     pagecolor="#ffffff"
     bordercolor="#666666"
     borderopacity="1.0"
     inkscape:pageopacity="0.0"
     inkscape:pageshadow="2"
     inkscape:zoom="3.959798"
     inkscape:cx="14.76693"
     inkscape:cy="33.745053"
     inkscape:document-units="px"
     inkscape:current-layer="layer1"
     showgrid="false"
     units="px"
     inkscape:window-width="1366"
     inkscape:window-height="705"
     inkscape:window-x="-8"
     inkscape:window-y="-8"
     inkscape:window-maximized="1" />
  <metadata
     id="metadata5">
    <rdf:RDF>
      <cc:Work
         rdf:about="">
        <dc:format>image/svg+xml</dc:format>
        <dc:type
           rdf:resource="http://purl.org/dc/dcmitype/StillImage" />
        <dc:title></dc:title>
      </cc:Work>
    </rdf:RDF>
  </metadata>
  <g
     inkscape:label="Layer 1"
     inkscape:groupmode="layer"
     id="layer1"
     transform="translate(0,-270.54166)">
    <path
       style="color:#000000;font-style:normal;font-variant:normal;font-weight:normal;font-stretch:normal;font-size:medium;line-height:normal;font-family:sans-serif;font-variant-ligatures:normal;font-variant-position:normal;font-variant-caps:normal;font-variant-numeric:normal;font-variant-alternates:normal;font-feature-settings:normal;text-indent:0;text-align:start;text-decoration:none;text-decoration-line:none;text-decoration-style:solid;text-decoration-color:#000000;letter-spacing:normal;word-spacing:normal;text-transform:none;writing-mode:lr-tb;direction:ltr;text-orientation:mixed;dominant-baseline:auto;baseline-shift:baseline;text-anchor:start;white-space:normal;shape-padding:0;clip-rule:nonzero;display:inline;overflow:visible;visibility:visible;opacity:1;isolation:auto;mix-blend-mode:normal;color-interpolation:sRGB;color-interpolation-filters:linearRGB;solid-color:#000000;solid-opacity:1;vector-effect:none;fill:#fafafc;fill-opacity:1;fill-rule:nonzero;stroke:none;stroke-width:1.3223412;stroke-linecap:round;stroke-linejoin:round;stroke-miterlimit:4;stroke-dasharray:none;stroke-dashoffset:0;stroke-opacity:1;color-rendering:auto;image-rendering:auto;shape-rendering:auto;text-rendering:auto;enable-background:accumulate"
       d="m 13.243809,270.54185 a 0.6612367,0.6612367 0 0 0 -0.345553,0.0879 l -10.8839358,6.28433 a 0.6612367,0.6612367 0 0 0 -0.329934,0.57201 v 12.56875 a 0.6612367,0.6612367 0 0 0 0.329934,0.57202 l 3.4672419,2.00108 a 0.6612367,0.6612367 0 0 0 0.03124,0.0176 c 0.7080718,0.3593 1.352123,0.5298 1.9503229,0.49783 0.5982009,-0.032 1.1341539,-0.29294 1.50911,-0.68134 0.7499088,-0.77679 0.9487929,-1.92258 0.9253778,-3.07679 v -10.59305 a 0.6612367,0.6612367 0 1 0 -1.3216908,0 v 10.60672 a 0.6612367,0.6612367 0 0 0 0,0.0137 c 0.019359,0.95453 -0.2184861,1.78388 -0.554446,2.13188 -0.16798,0.174 -0.3389691,0.2637 -0.6286331,0.27918 -0.2892539,0.0155 -0.715322,-0.0707 -1.2806929,-0.35727 H 6.11014 l -3.1040598,-1.79421 v -11.80345 l 10.2221108,-5.90368 10.224066,5.90368 v 11.80346 l -10.224066,5.90368 -2.975268,-1.718 a 0.6612367,0.6612367 0 1 0 -0.65987,1.14403 l 3.305203,1.90933 a 0.6612367,0.6612367 0 0 0 0.661821,0 l 10.883936,-6.28438 a 0.6612367,0.6612367 0 0 0 0.329934,-0.57202 v -12.56875 a 0.6612367,0.6612367 0 0 0 -0.329934,-0.57201 L 13.560077,270.6297 a 0.6612367,0.6612367 0 0 0 -0.316268,-0.0879 z m 1.928847,8.12147 c -0.897479,0.0906 -1.606431,0.24652 -2.13774,0.63449 -0.935986,0.64652 -1.287421,1.5728 -1.300217,2.38177 -0.0097,0.53254 0.172048,1.03222 0.484165,1.39393 0.312508,0.36215 0.720022,0.59113 1.153795,0.75943 0.867545,0.3366 1.891395,0.45171 2.879607,0.58568 0.988211,0.13397 1.937949,0.28861 2.539909,0.5564 0.30098,0.1339 0.506083,0.28768 0.626681,0.44707 0.120598,0.1594 0.186336,0.33053 0.177657,0.6384 a 0.6612367,0.6612367 0 0 0 0,0.008 c -0.0063,0.39665 -0.212567,1.21916 -1.622341,1.61843 a 0.6612367,0.6612367 0 0 0 -0.0059,0.002 c -0.17651,0.052 -1.001731,0.14388 -1.796096,0.13861 -0.794362,-0.005 -1.65277,-0.10366 -1.987415,-0.22256 a 0.6612367,0.6612367 0 0 0 -0.04295,-0.0137 c -0.692151,-0.19391 -1.49349,-0.67327 -1.49349,-2.16508 a 0.6612367,0.6612367 0 1 0 -1.321691,0 c 0,2.01906 1.32932,3.10967 2.442297,3.4282 0.67059,0.23252 1.533764,0.29104 2.39349,0.29675 0.868019,0.006 1.633203,-0.0345 2.174834,-0.19328 1.870644,-0.53115 2.562055,-1.90591 2.578955,-2.86399 0.01475,-0.55831 -0.144976,-1.07594 -0.443166,-1.47006 -0.299024,-0.39523 -0.705894,-0.663 -1.14208,-0.85705 -0.872374,-0.38811 -1.904067,-0.52277 -2.901082,-0.65793 -0.997015,-0.13516 -1.962762,-0.26851 -2.578955,-0.50759 -0.308097,-0.11954 -0.516417,-0.2601 -0.630585,-0.39241 -0.114169,-0.1323 -0.168858,-0.25117 -0.163992,-0.50564 a 0.6612367,0.6612367 0 0 0 0,-0.002 c 0.0086,-0.54236 0.09327,-0.88577 0.734056,-1.32364 a 0.6612367,0.6612367 0 0 0 0.01952,-0.0137 c 0.07063,-0.0519 0.737055,-0.30808 1.495444,-0.3846 0.758389,-0.0765 1.654941,-0.0366 2.399347,0.19328 a 0.6612367,0.6612367 0 0 0 0.01562,0.006 c 0.238767,0.0669 0.641069,0.24847 0.946853,0.5603 0.305784,0.31184 0.546636,0.73172 0.546636,1.44859 a 0.6612367,0.6612367 0 1 0 1.321691,0 c 0,-1.0433 -0.411319,-1.84974 -0.925379,-2.37397 -0.512032,-0.52215 -1.093679,-0.78181 -1.52668,-0.90389 -0.974916,-0.29921 -2.013116,-0.33657 -2.910844,-0.24599 z"
       id="path1115"
       inkscape:connector-curvature="0" />
  </g>
</svg>
